<?xml version="1.0" standalone="no"?>
<!DOCTYPE svg PUBLIC "-//W3C//DTD SVG 20010904//EN"
 "http://www.w3.org/TR/2001/REC-SVG-20010904/DTD/svg10.dtd">
<svg version="1.0" xmlns="http://www.w3.org/2000/svg"
 width="700.000000pt" height="700.000000pt" viewBox="0 0 700.000000 700.000000"
 preserveAspectRatio="xMidYMid meet">
<metadata>
Created by potrace 1.14, written by Peter Selinger 2001-2017
</metadata>
<g transform="translate(0.000000,700.000000) scale(0.100000,-0.100000)"
fill="#000000" stroke="none">
<path d="M1887 6764 c-1 -1 -41 -4 -90 -8 -429 -30 -748 -253 -799 -558 -10
-59 -13 -536 -12 -2284 1 -2147 3 -2327 24 -2529 54 -523 275 -794 746 -914
103 -26 305 -59 414 -66 47 -4 96 -9 110 -12 14 -4 775 -8 1692 -10 1829 -5
1731 -8 1838 54 168 96 299 357 337 674 9 79 10 373 0 454 -47 403 -227 684
-472 735 -33 6 -496 11 -1325 13 -990 3 -1286 6 -1323 16 -54 14 -69 36 -83
116 -4 28 -8 871 -9 1875 -1 1499 -4 1835 -15 1883 -7 32 -17 60 -22 63 -4 3
-8 12 -8 21 0 28 -71 132 -128 189 -181 179 -467 279 -825 288 -27 1 -49 1
-50 0z m205 -338 c12 -2 41 -7 63 -11 197 -34 370 -131 428 -239 l22 -41 1
-1810 c1 -995 4 -1839 8 -1875 16 -151 56 -251 132 -327 57 -57 134 -98 216
-114 29 -5 67 -13 83 -16 17 -3 597 -8 1290 -9 693 -2 1268 -4 1277 -4 28 0
100 -81 129 -146 59 -130 87 -288 87 -494 0 -272 -60 -506 -155 -598 l-34 -33
-1662 4 c-914 2 -1682 6 -1707 10 -25 3 -74 8 -110 11 -36 4 -76 9 -90 11 -14
3 -41 7 -60 9 -137 17 -299 67 -397 122 -151 84 -235 231 -268 469 -13 94 -15
115 -21 210 -4 55 -8 1108 -9 2340 -1 1926 1 2246 13 2283 29 87 154 178 300
218 121 34 362 49 464 30z"/>
<path d="M4809 6366 c-2 -2 -30 -6 -63 -10 -81 -8 -160 -30 -266 -72 -43 -17
-170 -86 -194 -105 -195 -155 -291 -269 -371 -442 -76 -165 -105 -305 -100
-491 3 -142 6 -164 37 -276 110 -402 441 -705 858 -784 102 -20 294 -18 400 4
374 78 664 325 805 686 19 46 32 84 30 84 -2 0 2 21 10 48 32 111 40 300 19
435 -64 397 -345 735 -719 865 -54 19 -84 27 -180 47 -35 7 -260 17 -266 11z
m251 -341 c62 -12 183 -64 250 -107 130 -86 245 -229 299 -372 38 -103 50
-183 47 -306 -3 -97 -8 -129 -35 -209 -71 -211 -200 -361 -396 -459 -57 -28
-165 -66 -165 -57 0 3 -12 0 -26 -5 -37 -15 -198 -15 -273 -1 -186 35 -348
137 -465 291 -225 297 -206 714 46 994 107 118 282 216 418 233 25 3 47 8 50
10 6 6 202 -4 250 -12z"/>
</g>
</svg>
